<svg xmlns="http://www.w3.org/2000/svg" viewBox="0 0 64 64">
  <!-- Background -->
  <rect width="64" height="64" rx="12" fill="#0d6efd"/>
  
  <!-- Open Book -->
  <path d="M10 20 L10 44 L31 44 L31 20 C24 18 17 20 10 20" fill="#ffffff"/>
  <path d="M54 20 L54 44 L33 44 L33 20 C40 18 47 20 54 20" fill="#ffffff"/>
  
  <!-- Book Spine -->
  <rect x="31" y="20" width="2" height="24" fill="#0d6efd"/>
  
  <!-- Book Pages Lines (left side) -->
  <line x1="15" y1="26" x2="26" y2="26" stroke="#e0e0e0" stroke-width="1"/>
  <line x1="15" y1="30" x2="26" y2="30" stroke="#e0e0e0" stroke-width="1"/>
  <line x1="15" y1="34" x2="26" y2="34" stroke="#e0e0e0" stroke-width="1"/>
  <line x1="15" y1="38" x2="26" y2="38" stroke="#e0e0e0" stroke-width="1"/>
  
  <!-- Book Pages Lines (right side) -->
  <line x1="38" y1="26" x2="49" y2="26" stroke="#e0e0e0" stroke-width="1"/>
  <line x1="38" y1="30" x2="49" y2="30" stroke="#e0e0e0" stroke-width="1"/>
  <line x1="38" y1="34" x2="49" y2="34" stroke="#e0e0e0" stroke-width="1"/>
  <line x1="38" y1="38" x2="49" y2="38" stroke="#e0e0e0" stroke-width="1"/>
  
  <!-- Book shadow -->
  <path d="M10 44 L10 46 C17 48 24 46 31 46 L31 44 L10 44" fill="#dee2e6"/>
  <path d="M54 44 L54 46 C47 48 40 46 33 46 L33 44 L54 44" fill="#dee2e6"/>
</svg>
